<svg version="1.0" xmlns="http://www.w3.org/2000/svg"  width="600.000000pt" height="730.000000pt" viewBox="0 0 600.000000 730.000000"  preserveAspectRatio="xMidYMid meet"> <g transform="translate(0.000000,730.000000) scale(0.100000,-0.100000)" fill="#ffffff" stroke="none"> <path d="M4820 5241 c-85 -28 -127 -49 -390 -188 -475 -252 -440 -242 -496 -146 -47 82 -174 212 -236 241 -75 37 -192 45 -553 39 -352 -6 -436 -15 -599 -62 -385 -111 -684 -377 -885 -785 -92 -188 -112 -215 -210 -284 -110 -76 -228 -207 -276 -303 -74 -148 -49 -241 102 -383 l73 -68 0 -55 c0 -75 -56 -287 -150 -570 -114 -337 -110 -395 35 -542 95 -97 150 -107 300 -56 50 17 137 40 195 51 247 49 432 155 665 380 220 212 202 212 376 -5 315 -392 556 -546 859 -549 124 -1 145 7 230 93 162 164 135 275 -150 631 -188 235 -199 267 -104 284 251 48 521 261 650 516 32 63 58 99 90 125 127 105 258 264 327 400 38 74 41 87 45 178 l4 99 57 61 c247 267 419 569 392 687 -12 55 -35 91 -93 146 -90 88 -146 102 -258 65z m190 -126 c0 -3 -2 -5 -5 -5 -3 0 -5 2 -5 5 0 3 2 5 5 5 3 0 5 -2 5 -5z m6 -50 c-3 -8 -50 -79 -105 -157 -335 -477 -526 -626 -1116 -868 -343 -141 -487 -205 -610 -272 -190 -103 -330 -201 -318 -221 4 -6 0 -8 -10 -4 -10 3 -17 2 -17 -3 0 -6 6 -10 13 -11 6 0 2 -4 -10 -9 -13 -5 -23 -16 -23 -24 0 -7 -7 -17 -16 -20 -9 -3 -14 -12 -11 -20 3 -7 0 -13 -6 -12 -7 0 -12 -2 -12 -6 0 -4 -22 -28 -49 -53 -27 -25 -45 -45 -38 -45 6 0 17 6 24 13 103 97 536 314 873 438 85 31 89 40 8 18 -37 -11 -76 -18 -85 -15 -10 2 -21 0 -24 -5 -3 -5 -16 -9 -30 -9 -14 0 -22 4 -19 10 8 12 3 13 -28 1 -17 -7 -24 -6 -24 4 0 7 8 10 19 7 26 -6 22 7 -4 18 -18 7 -19 9 -5 9 46 2 766 245 985 333 96 38 176 67 179 64 11 -11 -141 -202 -231 -292 -206 -205 -413 -309 -841 -424 -391 -106 -408 -112 -575 -189 -79 -37 -70 -38 35 -6 44 13 141 43 215 65 122 37 927 206 937 197 16 -17 -224 -203 -339 -262 -156 -79 -257 -103 -573 -135 -110 -11 -235 -27 -278 -36 -100 -20 -111 -15 -45 19 29 15 60 32 68 37 8 5 22 11 30 14 8 3 22 10 30 15 8 5 24 12 34 16 10 3 17 8 14 10 -15 16 -246 -82 -334 -142 -23 -15 -60 -41 -84 -56 -23 -16 -135 -122 -249 -236 -270 -271 -383 -346 -644 -430 -117 -37 -145 -40 -103 -8 167 125 241 203 946 997 36 41 126 147 199 235 491 594 462 570 1022 830 450 210 784 381 1094 563 128 75 140 80 131 57z m-1286 -172 c0 -28 -135 -228 -195 -288 -124 -126 -215 -154 -505 -155 -295 -1 -420 -36 -548 -155 -85 -79 -175 -254 -207 -402 l-7 -33 242 0 c137 0 240 -4 238 -9 -6 -16 -207 -200 -254 -232 -65 -44 -122 -59 -230 -59 l-92 0 -17 -72 c-135 -556 -417 -989 -766 -1177 -86 -46 -98 -45 -64 8 66 106 176 408 248 686 21 77 59 226 86 330 27 105 53 198 56 208 7 16 -6 17 -184 17 -105 0 -191 4 -191 8 0 21 80 138 129 187 77 79 136 105 233 105 76 0 78 0 84 28 134 582 425 892 929 987 101 19 1015 35 1015 18z m-310 -1118 c0 -3 -2 -5 -5 -5 -3 0 -5 2 -5 5 0 3 2 5 5 5 3 0 5 -2 5 -5z m50 -10 c0 -3 -2 -5 -5 -5 -3 0 -5 2 -5 5 0 3 2 5 5 5 3 0 5 -2 5 -5z m-610 -590 c0 -3 -2 -5 -5 -5 -3 0 -5 2 -5 5 0 3 2 5 5 5 3 0 5 -2 5 -5z m-60 -50 c0 -3 -2 -5 -5 -5 -3 0 -5 2 -5 5 0 3 2 5 5 5 3 0 5 -2 5 -5z m264 -19 c6 -7 67 -83 136 -167 151 -187 513 -626 569 -690 22 -26 38 -48 36 -51 -2 -2 -43 2 -91 8 -276 41 -405 89 -543 205 -105 88 -588 665 -522 624 8 -4 50 -9 95 -11 45 -1 96 -7 114 -12 29 -10 45 -1 22 13 -20 12 2 30 43 33 29 2 53 12 77 32 40 33 48 35 64 16z m-314 -1 c0 -3 -2 -5 -5 -5 -3 0 -5 2 -5 5 0 3 2 5 5 5 3 0 5 -2 5 -5z"/> <path d="M3600 4245 c0 -3 2 -5 5 -5 3 0 5 2 5 5 0 3 -2 5 -5 5 -3 0 -5 -2 -5 -5z"/> <path d="M3560 4225 c0 -3 2 -5 5 -5 3 0 5 2 5 5 0 3 -2 5 -5 5 -3 0 -5 -2 -5 -5z"/> <path d="M3520 4205 c0 -3 2 -5 5 -5 3 0 5 2 5 5 0 3 -2 5 -5 5 -3 0 -5 -2 -5 -5z"/> <path d="M3470 4175 c0 -3 2 -5 5 -5 3 0 5 2 5 5 0 3 -2 5 -5 5 -3 0 -5 -2 -5 -5z"/> <path d="M3450 4165 c0 -3 2 -5 5 -5 3 0 5 2 5 5 0 3 -2 5 -5 5 -3 0 -5 -2 -5 -5z"/> <path d="M3399 4133 c-13 -16 -12 -17 4 -4 16 13 21 21 13 21 -2 0 -10 -8 -17 -17z"/> <path d="M3359 4103 c-13 -16 -12 -17 4 -4 16 13 21 21 13 21 -2 0 -10 -8 -17 -17z"/> <path d="M3301 4069 c-13 -11 -31 -24 -40 -29 -9 -5 -13 -11 -11 -14 3 -3 25 11 49 30 24 18 40 34 35 34 -5 -1 -20 -10 -33 -21z"/> <path d="M3230 4005 c0 -3 2 -5 5 -5 3 0 5 2 5 5 0 3 -2 5 -5 5 -3 0 -5 -2 -5 -5z"/> <path d="M3199 3983 c-13 -16 -12 -17 4 -4 16 13 21 21 13 21 -2 0 -10 -8 -17 -17z"/> <path d="M3170 3965 c0 -3 2 -5 5 -5 3 0 5 2 5 5 0 3 -2 5 -5 5 -3 0 -5 -2 -5 -5z"/> <path d="M3800 3875 c0 -3 2 -5 5 -5 3 0 5 2 5 5 0 3 -2 5 -5 5 -3 0 -5 -2 -5 -5z"/> <path d="M3713 3843 c4 -3 10 -3 14 0 3 4 0 7 -7 7 -7 0 -10 -3 -7 -7z"/> <path d="M3680 3835 c0 -3 2 -5 5 -5 3 0 5 2 5 5 0 3 -2 5 -5 5 -3 0 -5 -2 -5 -5z"/> <path d="M3430 3815 c0 -3 2 -5 5 -5 3 0 5 2 5 5 0 3 -2 5 -5 5 -3 0 -5 -2 -5 -5z"/> <path d="M3520 3805 c0 -3 2 -5 5 -5 3 0 5 2 5 5 0 3 -2 5 -5 5 -3 0 -5 -2 -5 -5z"/> <path d="M3463 3793 c4 -3 10 -3 14 0 3 4 0 7 -7 7 -7 0 -10 -3 -7 -7z"/> <path d="M3393 3363 c4 -3 10 -3 14 0 3 4 0 7 -7 7 -7 0 -10 -3 -7 -7z"/> <path d="M3363 3353 c4 -3 10 -3 14 0 3 4 0 7 -7 7 -7 0 -10 -3 -7 -7z"/> <path d="M2880 3345 c0 -3 2 -5 5 -5 3 0 5 2 5 5 0 3 -2 5 -5 5 -3 0 -5 -2 -5 -5z"/> <path d="M3323 3343 c4 -3 10 -3 14 0 3 4 0 7 -7 7 -7 0 -10 -3 -7 -7z"/> <path d="M3283 3333 c4 -3 10 -3 14 0 3 4 0 7 -7 7 -7 0 -10 -3 -7 -7z"/> <path d="M2653 3323 c4 -3 10 -3 14 0 3 4 0 7 -7 7 -7 0 -10 -3 -7 -7z"/> <path d="M2880 3325 c0 -3 2 -5 5 -5 3 0 5 2 5 5 0 3 -2 5 -5 5 -3 0 -5 -2 -5 -5z"/> <path d="M2634 3298 c-4 -7 -3 -8 4 -4 7 4 12 9 12 12 0 8 -9 4 -16 -8z"/> <path d="M2830 3285 c0 -3 2 -5 5 -5 3 0 5 2 5 5 0 3 -2 5 -5 5 -3 0 -5 -2 -5 -5z"/> <path d="M3110 3280 c-9 -6 -10 -10 -3 -10 6 0 15 5 18 10 8 12 4 12 -15 0z"/> <path d="M3063 3263 c4 -3 10 -3 14 0 3 4 0 7 -7 7 -7 0 -10 -3 -7 -7z"/> <path d="M2753 3243 c4 -3 10 -3 14 0 3 4 0 7 -7 7 -7 0 -10 -3 -7 -7z"/> <path d="M2720 3215 c0 -3 2 -5 5 -5 3 0 5 2 5 5 0 3 -2 5 -5 5 -3 0 -5 -2 -5 -5z"/> <path d="M2680 3195 c0 -3 2 -5 5 -5 3 0 5 2 5 5 0 3 -2 5 -5 5 -3 0 -5 -2 -5 -5z"/> <path d="M1820 3790 c0 -7 3 -10 7 -7 3 4 3 10 0 14 -4 3 -7 0 -7 -7z"/> <path d="M2070 3534 c-15 -39 -11 -53 5 -17 7 17 22 33 32 36 14 4 14 5 -5 6 -16 1 -25 -7 -32 -25z"/> <path d="M2040 3435 c0 -3 2 -5 5 -5 3 0 5 2 5 5 0 3 -2 5 -5 5 -3 0 -5 -2 -5 -5z"/> <path d="M2030 3400 c0 -7 3 -10 7 -7 3 4 3 10 0 14 -4 3 -7 0 -7 -7z"/> <path d="M2020 3375 c0 -3 2 -5 5 -5 3 0 5 2 5 5 0 3 -2 5 -5 5 -3 0 -5 -2 -5 -5z"/> <path d="M2010 3335 c0 -3 2 -5 5 -5 3 0 5 2 5 5 0 3 -2 5 -5 5 -3 0 -5 -2 -5 -5z"/> <path d="M2000 3300 c0 -7 3 -10 7 -7 3 4 3 10 0 14 -4 3 -7 0 -7 -7z"/> <path d="M1990 3270 c0 -7 3 -10 7 -7 3 4 3 10 0 14 -4 3 -7 0 -7 -7z"/> <path d="M1980 3240 c0 -7 3 -10 7 -7 3 4 3 10 0 14 -4 3 -7 0 -7 -7z"/> <path d="M1970 3215 c0 -3 2 -5 5 -5 3 0 5 2 5 5 0 3 -2 5 -5 5 -3 0 -5 -2 -5 -5z"/> <path d="M2900 2985 c0 -3 2 -5 5 -5 3 0 5 2 5 5 0 3 -2 5 -5 5 -3 0 -5 -2 -5 -5z"/> <path d="M2985 2900 c3 -5 8 -10 11 -10 3 0 2 5 -1 10 -3 6 -8 10 -11 10 -3 0 -2 -4 1 -10z"/> <path d="M3010 2880 c0 -7 3 -10 7 -7 3 4 3 10 0 14 -4 3 -7 0 -7 -7z"/> <path d="M3030 2860 c0 -5 5 -10 11 -10 5 0 7 5 4 10 -3 6 -8 10 -11 10 -2 0 -4 -4 -4 -10z"/> <path d="M3072 2816 c13 -13 25 -22 27 -20 6 5 -30 44 -41 44 -5 0 2 -11 14 -24z"/> <path d="M3070 2785 c0 -3 2 -5 5 -5 3 0 5 2 5 5 0 3 -2 5 -5 5 -3 0 -5 -2 -5 -5z"/> <path d="M3110 2785 c0 -3 2 -5 5 -5 3 0 5 2 5 5 0 3 -2 5 -5 5 -3 0 -5 -2 -5 -5z"/> <path d="M3135 2760 c3 -5 8 -10 11 -10 3 0 2 5 -1 10 -3 6 -8 10 -11 10 -3 0 -2 -4 1 -10z"/> <path d="M3115 2750 c3 -5 8 -10 11 -10 3 0 2 5 -1 10 -3 6 -8 10 -11 10 -3 0 -2 -4 1 -10z"/> <path d="M3140 2729 c-12 -8 -9 -9 9 -4 20 6 23 4 18 -9 -4 -11 -3 -15 4 -11 12 8 51 -24 43 -36 -3 -5 0 -17 6 -26 9 -15 10 -14 4 6 -6 22 -3 21 40 -14 26 -21 54 -48 62 -59 8 -11 14 -16 14 -10 0 11 -169 174 -180 174 -3 0 -12 -5 -20 -11z"/> <path d="M3173 2683 c4 -3 10 -3 14 0 3 4 0 7 -7 7 -7 0 -10 -3 -7 -7z"/> <path d="M3260 2610 c0 -7 3 -10 7 -7 3 4 3 10 0 14 -4 3 -7 0 -7 -7z"/> <path d="M3350 2555 c0 -3 2 -5 5 -5 3 0 5 2 5 5 0 3 -2 5 -5 5 -3 0 -5 -2 -5 -5z"/> <path d="M3370 2545 c0 -3 2 -5 5 -5 3 0 5 2 5 5 0 3 -2 5 -5 5 -3 0 -5 -2 -5 -5z"/> </g> </svg>
