<svg xmlns="http://www.w3.org/2000/svg" viewBox="150 220 730 510" style="shape-rendering:geometricPrecision;fill-rule:evenodd;clip-rule:evenodd">
<defs>
  <linearGradient id="xgrd" x1="150" y1="220" x2="880" y2="730" gradientUnits="userSpaceOnUse">
    <stop offset="0%" stopColor="#A855F7"/>
    <stop offset="100%" stopColor="#06B6D4"/>
  </linearGradient>
</defs>
<g><path style="opacity:1" fill="#FFFFFF" d="M 822.5,225.5 C 823.833,226.167 823.833,226.167 822.5,225.5 Z"/></g>
<g><path style="opacity:1" fill="#FFFFFF" d="M 824.5,228.5 C 824.897,227.475 825.563,227.308 826.5,228C 825.906,228.464 825.239,228.631 824.5,228.5 Z"/></g>
<g><path style="opacity:1" fill="#FFFFFF" d="M 827.5,228.5 C 827.897,227.475 828.563,227.308 829.5,228C 828.906,228.464 828.239,228.631 827.5,228.5 Z"/></g>
<g><path style="opacity:1" fill="#FFFFFF" d="M 817.5,228.5 C 818.833,229.167 818.833,229.167 817.5,228.5 Z"/></g>
<g><path style="opacity:1" fill="#FFFFFF" d="M 848.5,232.5 C 854.035,238.047 855.868,244.713 854,252.5C 850.043,267.56 843.877,281.56 835.5,294.5C 828.25,305.092 820.584,315.425 812.5,325.5C 799.564,340.44 786.231,355.107 772.5,369.5C 759.11,382.893 745.443,395.893 731.5,408.5C 733.03,409.067 734.53,409.733 736,410.5C 737.515,414.61 739.015,418.61 740.5,422.5C 758.557,497.265 742.557,563.598 692.5,621.5C 689.5,623.833 686.833,626.5 684.5,629.5C 673.347,639.893 661.68,649.559 649.5,658.5C 647.632,659.263 645.965,660.263 644.5,661.5C 640.9,663.11 637.566,665.11 634.5,667.5C 609.682,681.106 583.348,690.106 555.5,694.5C 530.881,696.628 505.881,696.294 480.5,693.5C 449.584,687.376 420.918,675.709 394.5,658.5C 392.022,656.197 389.355,654.031 386.5,652C 391.397,649.392 396.063,646.559 400.5,643.5C 414.984,635.671 428.651,626.671 441.5,616.5C 444.37,615.567 446.704,613.9 448.5,611.5C 457.381,605.892 465.714,599.559 473.5,592.5C 475.027,592.573 476.027,591.906 476.5,590.5C 478.909,589.299 480.909,587.633 482.5,585.5C 484.833,583.5 487.167,581.5 489.5,579.5C 488.504,579.586 487.671,579.252 487,578.5C 484.674,580.066 482.508,581.732 480.5,583.5C 478.77,584.026 477.436,585.026 476.5,586.5C 474.973,586.427 473.973,587.094 473.5,588.5C 468.657,590.418 464.323,593.084 460.5,596.5C 450.826,601.667 441.492,607.334 432.5,613.5C 426.835,615.997 421.502,618.997 416.5,622.5C 411.91,624.439 407.577,626.773 403.5,629.5C 374.65,644.926 345.316,659.259 315.5,672.5C 310.105,673.704 305.105,675.704 300.5,678.5C 283.478,684.59 266.145,689.757 248.5,694C 241.208,695.353 233.875,695.686 226.5,695C 223.135,694.495 220.135,693.328 217.5,691.5C 217.027,690.094 216.027,689.427 214.5,689.5C 210.805,686.267 209.138,682.1 209.5,677C 210.608,666.343 214.108,656.51 220,647.5C 226.598,637.96 233.432,628.626 240.5,619.5C 242.543,618.421 243.876,616.754 244.5,614.5C 250.566,609.437 255.899,603.77 260.5,597.5C 266.463,593.205 271.796,588.205 276.5,582.5C 283.808,577.159 290.808,571.326 297.5,565C 298.167,564.333 298.833,564.333 299.5,565C 285.827,580.178 273.994,596.678 264,614.5C 260.066,622.203 259.066,630.203 261,638.5C 266.453,644.379 273.286,647.046 281.5,646.5C 306.825,643.174 330.825,635.84 353.5,624.5C 365.375,620.228 376.708,614.895 387.5,608.5C 403.007,601.297 418.007,593.297 432.5,584.5C 435.511,583.331 438.178,581.664 440.5,579.5C 441.492,579.672 442.158,579.338 442.5,578.5C 443.492,578.672 444.158,578.338 444.5,577.5C 456.842,570.665 468.842,563.332 480.5,555.5C 486.441,552.22 492.108,548.553 497.5,544.5C 498.71,544.068 499.71,543.401 500.5,542.5C 502.882,541.649 504.882,540.316 506.5,538.5C 513.113,534.55 519.446,530.217 525.5,525.5C 531.23,521.975 536.563,517.975 541.5,513.5C 543.144,512.634 544.811,512.134 546.5,512C 560.387,524.459 574.387,535.959 588.5,546.5C 603.472,559.627 619.472,571.46 636.5,582C 641.299,584.735 646.299,586.902 651.5,588.5C 662.474,594.496 674.141,595.996 686.5,593C 693.999,589.501 696.833,583.667 695,575.5C 694.61,572.896 693.776,570.562 692.5,568.5C 690.357,562.88 687.69,557.547 684.5,552.5C 684.262,550.596 683.262,549.262 681.5,548.5C 681.672,547.508 681.338,546.842 680.5,546.5C 679.649,544.118 678.316,542.118 676.5,540.5C 675.974,538.77 674.974,537.436 673.5,536.5C 672.299,534.091 670.633,532.091 668.5,530.5C 665.891,525.617 662.557,521.284 658.5,517.5C 643.583,499.581 627.249,482.915 609.5,467.5C 613.187,464.145 616.853,460.811 620.5,457.5C 627.71,451.036 635.043,445.369 642.5,440.5C 656.909,429.299 670.909,417.633 684.5,405.5C 685.833,404.833 686.833,403.833 687.5,402.5C 689.027,402.573 690.027,401.906 690.5,400.5C 691.5,400.167 692.167,399.5 692.5,398.5C 697.486,394.845 702.153,390.845 706.5,386.5C 721.966,373.612 736.299,359.612 749.5,344.5C 756.914,338.422 763.247,331.422 768.5,323.5C 782.665,309.838 793.332,293.838 800.5,275.5C 801.833,272.5 801.833,269.5 800.5,266.5C 799.251,264.864 797.584,263.697 795.5,263C 782.164,261.944 769.164,263.611 756.5,268C 745.883,271.038 735.55,274.538 725.5,278.5C 719.87,279.929 714.536,281.929 709.5,284.5C 703.417,286.021 697.417,287.521 691.5,289C 696.397,286.392 701.063,283.559 705.5,280.5C 723.999,271.084 742.332,261.418 760.5,251.5C 761.492,251.672 762.158,251.338 762.5,250.5C 763.492,250.672 764.158,250.338 764.5,249.5C 767.943,248.941 770.943,247.607 773.5,245.5C 775.403,245.204 777.07,244.537 778.5,243.5C 781.018,242.736 783.351,241.736 785.5,240.5C 801.749,233.896 818.583,229.896 836,228.5C 840.382,229.148 844.549,230.481 848.5,232.5 Z M 731.5,408.5 C 730.833,411.167 729.167,412.833 726.5,413.5C 727.833,411.5 729.5,409.833 731.5,408.5 Z M 504.5,567.5 C 504.027,568.906 503.027,569.573 501.5,569.5C 501.973,568.094 502.973,567.427 504.5,567.5 Z M 500.5,570.5 C 498.054,574.369 495.054,576.702 491.5,577.5C 491.511,575.983 492.177,574.816 493.5,574C 495.886,572.807 498.22,571.64 500.5,570.5 Z M 489.5,579.5 C 487.167,581.5 484.833,583.5 482.5,585.5C 481.5,585.167 480.833,584.5 480.5,583.5C 482.508,581.732 484.674,580.066 487,578.5C 487.671,579.252 488.504,579.586 489.5,579.5 Z"/></g>
<g><path style="opacity:1" fill="#FFFFFF" d="M 800.5,231.5 C 801.833,232.167 801.833,232.167 800.5,231.5 Z"/></g>
<g><path style="opacity:1" fill="#FFFFFF" d="M 804.5,231.5 C 805.833,232.167 805.833,232.167 804.5,231.5 Z"/></g>
<g><path style="opacity:1" fill="#FFFFFF" d="M 806.5,231.5 C 807.833,232.167 807.833,232.167 806.5,231.5 Z"/></g>
<g><path style="opacity:1" fill="#FFFFFF" d="M 848.5,231.5 C 849.833,232.167 849.833,232.167 848.5,231.5 Z"/></g>
<g><path style="opacity:1" fill="#FFFFFF" d="M 798.5,234.5 C 798.897,233.475 799.563,233.308 800.5,234C 799.906,234.464 799.239,234.631 798.5,234.5 Z"/></g>
<g><path style="opacity:1" fill="#FFFFFF" d="M 785.5,240.5 C 784.833,239.167 784.833,239.167 785.5,240.5 Z"/></g>
<g><path style="opacity:1" fill="#FFFFFF" d="M 775.5,242.5 C 776.833,243.167 776.833,243.167 775.5,242.5 Z"/></g>
<g><path style="opacity:1" fill="#FFFFFF" d="M 778.5,243.5 C 777.833,242.167 777.833,242.167 778.5,243.5 Z"/></g>
<g><path style="opacity:1" fill="#FFFFFF" d="M 773.5,245.5 C 772.833,244.167 772.833,244.167 773.5,245.5 Z"/></g>
<g><path style="opacity:1" fill="#FFFFFF" d="M 764.5,249.5 C 763.833,248.167 763.833,248.167 764.5,249.5 Z"/></g>
<g><path style="opacity:1" fill="#FFFFFF" d="M 514.5,249.5 C 515.833,250.167 515.833,250.167 514.5,249.5 Z"/></g>
<g><path style="opacity:1" fill="#FFFFFF" d="M 518.5,249.5 C 519.833,250.167 519.833,250.167 518.5,249.5 Z"/></g>
<g><path style="opacity:1" fill="#FFFFFF" d="M 548.5,250.5 C 549.251,249.427 550.251,249.26 551.5,250C 550.552,250.483 549.552,250.649 548.5,250.5 Z"/></g>
<g><path style="opacity:1" fill="#FFFFFF" d="M 762.5,250.5 C 761.833,249.167 761.833,249.167 762.5,250.5 Z"/></g>
<g><path style="opacity:1" fill="#FFFFFF" d="M 505.5,250.5 C 506.833,251.167 506.833,251.167 505.5,250.5 Z"/></g>
<g><path style="opacity:1" fill="#FFFFFF" d="M 559.5,250.5 C 560.833,251.167 560.833,251.167 559.5,250.5 Z"/></g>
<g><path style="opacity:1" fill="#FFFFFF" d="M 561.5,250.5 C 562.833,251.167 562.833,251.167 561.5,250.5 Z"/></g>
<g><path style="opacity:1" fill="#FFFFFF" d="M 566.5,250.5 C 567.833,251.167 567.833,251.167 566.5,250.5 Z"/></g>
<g><path style="opacity:1" fill="#FFFFFF" d="M 760.5,251.5 C 759.833,250.167 759.833,250.167 760.5,251.5 Z"/></g>
<g><path style="opacity:1" fill="#FFFFFF" d="M 491.5,251.5 C 492.833,252.167 492.833,252.167 491.5,251.5 Z"/></g>
<g><path style="opacity:1" fill="#FFFFFF" d="M 588.5,256.5 C 591.477,257.71 594.644,258.71 598,259.5C 598.765,259.43 599.265,259.097 599.5,258.5C 606.798,261.934 614.464,264.601 622.5,266.5C 627.86,269.403 633.527,271.736 639.5,273.5C 639.842,274.338 640.508,274.672 641.5,274.5C 646.326,277.838 651.492,280.838 657,283.5C 657.383,282.944 657.883,282.611 658.5,282.5C 658.414,283.496 658.748,284.329 659.5,285C 663.394,287.446 667.394,289.612 671.5,291.5C 675.576,295.12 679.576,298.12 683.5,300.5C 685.86,302.853 688.527,304.853 691.5,306.5C 693.839,309.506 696.506,312.173 699.5,314.5C 698.451,316.216 697.118,317.549 695.5,318.5C 691.264,320.445 687.597,323.112 684.5,326.5C 680.293,328.435 676.627,331.102 673.5,334.5C 669.268,336.4 665.601,339.067 662.5,342.5C 658.808,344.344 655.475,346.677 652.5,349.5C 651.833,349.5 651.5,349.833 651.5,350.5C 648.63,351.433 646.296,353.1 644.5,355.5C 642.596,355.738 641.262,356.738 640.5,358.5C 637.63,359.433 635.296,361.1 633.5,363.5C 628.473,366.345 623.806,369.679 619.5,373.5C 612.918,377.091 606.918,381.424 601.5,386.5C 588.492,395.006 575.825,404.006 563.5,413.5C 559.779,415.354 556.446,417.687 553.5,420.5C 552.262,421.412 550.928,421.579 549.5,421C 537.984,412.41 525.984,404.576 513.5,397.5C 509.167,394.331 504.5,391.664 499.5,389.5C 495.016,386.088 490.016,383.422 484.5,381.5C 478.335,377.418 471.668,374.418 464.5,372.5C 459.895,369.704 454.895,367.704 449.5,366.5C 425.897,356.507 401.564,353.84 376.5,358.5C 368.691,358.712 362.191,361.712 357,367.5C 356.333,369.5 356.333,371.5 357,373.5C 365.149,382.325 374.649,389.325 385.5,394.5C 393.119,400.316 401.119,405.65 409.5,410.5C 409.842,411.338 410.508,411.672 411.5,411.5C 420.119,418.025 428.119,423.692 435.5,428.5C 437.205,430.192 439.205,431.525 441.5,432.5C 441.973,433.906 442.973,434.573 444.5,434.5C 448.959,438.897 453.959,442.564 459.5,445.5C 461.55,447.547 463.883,449.214 466.5,450.5C 466.5,451.167 466.833,451.5 467.5,451.5C 474.31,457.469 481.31,463.302 488.5,469C 470.981,482.364 453.647,495.864 436.5,509.5C 433.19,511.482 430.19,513.815 427.5,516.5C 426.833,516.5 426.5,516.833 426.5,517.5C 423.467,519.016 420.8,521.016 418.5,523.5C 413.431,526.695 408.765,530.362 404.5,534.5C 401.467,536.016 398.8,538.016 396.5,540.5C 385.236,548.101 374.569,556.434 364.5,565.5C 359.929,567.738 355.929,570.738 352.5,574.5C 344.426,579.734 336.759,585.567 329.5,592C 328.5,592.667 327.5,592.667 326.5,592C 325.303,589.985 323.97,588.151 322.5,586.5C 319.857,581.868 316.857,577.535 313.5,573.5C 309.576,564.929 305.243,555.596 300.5,545.5C 300.598,543.447 299.931,541.78 298.5,540.5C 297.071,532.751 294.737,525.418 291.5,518.5C 292.124,518.083 292.457,517.416 292.5,516.5C 291.036,508.712 289.703,501.045 288.5,493.5C 287.11,475.82 287.777,457.987 290.5,440C 290.245,438.674 289.578,437.674 288.5,437C 289.448,436.517 290.448,436.351 291.5,436.5C 292.691,428.071 294.357,419.738 296.5,411.5C 302.322,396.184 308.988,381.184 316.5,366.5C 318.664,364.178 320.331,361.511 321.5,358.5C 326.488,351.872 331.488,345.205 336.5,338.5C 343.139,331.526 349.806,324.526 356.5,317.5C 357.833,316.833 358.833,315.833 359.5,314.5C 361.749,313.92 363.415,312.587 364.5,310.5C 373.524,303.802 382.524,297.135 391.5,290.5C 393.027,290.573 394.027,289.906 394.5,288.5C 399.5,286.336 404.167,283.669 408.5,280.5C 412.151,279.341 415.485,277.674 418.5,275.5C 420.153,275.34 421.486,274.674 422.5,273.5C 428.473,271.736 434.14,269.403 439.5,266.5C 448.359,264.124 457.025,261.457 465.5,258.5C 505.483,249.494 546.483,248.828 588.5,256.5 Z"/></g>
<g><path style="opacity:1" fill="#FFFFFF" d="M 486.5,253.5 C 486.897,252.475 487.563,252.308 488.5,253C 487.906,253.464 487.239,253.631 486.5,253.5 Z"/></g>
<g><path style="opacity:1" fill="#FFFFFF" d="M 575.5,252.5 C 576.833,253.167 576.833,253.167 575.5,252.5 Z"/></g>
<g><path style="opacity:1" fill="#FFFFFF" d="M 753.5,252.5 C 754.833,253.167 754.833,253.167 753.5,252.5 Z"/></g>
<g><path style="opacity:1" fill="#FFFFFF" d="M 579.5,253.5 C 580.833,254.167 580.833,254.167 579.5,253.5 Z"/></g>
<g><path style="opacity:1" fill="#FFFFFF" d="M 854.5,253.5 C 855.525,253.897 855.692,254.563 855,255.5C 854.536,254.906 854.369,254.239 854.5,253.5 Z"/></g>
<g><path style="opacity:1" fill="#FFFFFF" d="M 588.5,255.5 C 589.833,256.167 589.833,256.167 588.5,255.5 Z"/></g>
<g><path style="opacity:1" fill="#FFFFFF" d="M 590.5,255.5 C 591.833,256.167 591.833,256.167 590.5,255.5 Z"/></g>
<g><path style="opacity:1" fill="#FFFFFF" d="M 748.5,255.5 C 749.833,256.167 749.833,256.167 748.5,255.5 Z"/></g>
<g><path style="opacity:1" fill="#FFFFFF" d="M 467.5,256.5 C 468.833,257.167 468.833,257.167 467.5,256.5 Z"/></g>
<g><path style="opacity:1" fill="#FFFFFF" d="M 606.5,257.5 C 605.833,256.167 605.833,256.167 606.5,257.5 Z"/></g>
<g><path style="opacity:1" fill="#FFFFFF" d="M 748.5,256.5 C 747.833,257.167 747.833,257.167 748.5,256.5 Z"/></g>
<g><path style="opacity:1" fill="#FFFFFF" d="M 462.5,257.5 C 463.833,258.167 463.833,258.167 462.5,257.5 Z"/></g>
<g><path style="opacity:1" fill="#FFFFFF" d="M 465.5,258.5 C 464.833,257.167 464.833,257.167 465.5,258.5 Z"/></g>
<g><path style="opacity:1" fill="#FFFFFF" d="M 599.5,258.5 C 598.833,257.167 598.833,257.167 599.5,258.5 Z"/></g>
<g><path style="opacity:1" fill="#FFFFFF" d="M 606.5,257.5 C 607.833,258.167 607.833,258.167 606.5,257.5 Z"/></g>
<g><path style="opacity:1" fill="#FFFFFF" d="M 745.5,257.5 C 746.833,258.167 746.833,258.167 745.5,257.5 Z"/></g>
<g><path style="opacity:1" fill="#FFFFFF" d="M 601.5,257.5 C 602.525,257.897 602.692,258.563 602,259.5C 601.536,258.906 601.369,258.239 601.5,257.5 Z"/></g>
<g><path style="opacity:1" fill="#FFFFFF" d="M 743.5,258.5 C 744.833,259.167 744.833,259.167 743.5,258.5 Z"/></g>
<g><path style="opacity:1" fill="#FFFFFF" d="M 853.5,258.5 C 854.833,259.167 854.833,259.167 853.5,258.5 Z"/></g>
<g><path style="opacity:1" fill="#FFFFFF" d="M 451.5,260.5 C 452.833,261.167 452.833,261.167 451.5,260.5 Z"/></g>
<g><path style="opacity:1" fill="#FFFFFF" d="M 852.5,261.5 C 853.833,262.167 853.833,262.167 852.5,261.5 Z"/></g>
<g><path style="opacity:1" fill="#FFFFFF" d="M 852.5,263.5 C 853.833,264.167 853.833,264.167 852.5,263.5 Z"/></g>
<g><path style="opacity:1" fill="#FFFFFF" d="M 439.5,266.5 C 438.833,265.167 438.833,265.167 439.5,266.5 Z"/></g>
<g><path style="opacity:1" fill="#FFFFFF" d="M 622.5,265.5 C 623.833,266.167 623.833,266.167 622.5,265.5 Z"/></g>
<g><path style="opacity:1" fill="#FFFFFF" d="M 625.5,266.5 C 626.833,267.167 626.833,267.167 625.5,266.5 Z"/></g>
<g><path style="opacity:1" fill="#FFFFFF" d="M 765.5,266.5 C 766.833,267.167 766.833,267.167 765.5,266.5 Z"/></g>
<g><path style="opacity:1" fill="#FFFFFF" d="M 761.5,267.5 C 762.833,268.167 762.833,268.167 761.5,267.5 Z"/></g>
<g><path style="opacity:1" fill="#FFFFFF" d="M 800.5,266.5 C 800.657,267.873 800.49,269.207 800,270.5C 799.235,268.934 799.402,267.601 800.5,266.5 Z"/></g>
<g><path style="opacity:1" fill="#FFFFFF" d="M 854.5,268.5 C 855.833,269.167 855.833,269.167 854.5,268.5 Z"/></g>
<g><path style="opacity:1" fill="#FFFFFF" d="M 755.5,270.5 C 756.251,269.427 757.251,269.26 758.5,270C 757.552,270.483 756.552,270.649 755.5,270.5 Z"/></g>
<g><path style="opacity:1" fill="#FFFFFF" d="M 851.5,269.5 C 852.833,270.167 852.833,270.167 851.5,269.5 Z"/></g>
<g><path style="opacity:1" fill="#FFFFFF" d="M 423.5,271.5 C 424.833,272.167 424.833,272.167 423.5,271.5 Z"/></g>
<g><path style="opacity:1" fill="#FFFFFF" d="M 422.5,273.5 C 421.833,272.167 421.833,272.167 422.5,273.5 Z"/></g>
<g><path style="opacity:1" fill="#FFFFFF" d="M 639.5,272.5 C 640.833,273.167 640.833,273.167 639.5,272.5 Z"/></g>
<g><path style="opacity:1" fill="#FFFFFF" d="M 800.5,275.5 C 799.427,274.749 799.26,273.749 800,272.5C 800.483,273.448 800.649,274.448 800.5,275.5 Z"/></g>
<g><path style="opacity:1" fill="#FFFFFF" d="M 641.5,273.5 C 642.833,274.167 642.833,274.167 641.5,273.5 Z"/></g>
<g><path style="opacity:1" fill="#FFFFFF" d="M 741.5,273.5 C 742.833,274.167 742.833,274.167 741.5,273.5 Z"/></g>
<g><path style="opacity:1" fill="#FFFFFF" d="M 418.5,275.5 C 417.833,274.167 417.833,274.167 418.5,275.5 Z"/></g>
<g><path style="opacity:1" fill="#FFFFFF" d="M 643.5,274.5 C 644.833,275.167 644.833,275.167 643.5,274.5 Z"/></g>
<g><path style="opacity:1" fill="#FFFFFF" d="M 740.5,277.5 C 741.833,278.167 741.833,278.167 740.5,277.5 Z"/></g>
<g><path style="opacity:1" fill="#FFFFFF" d="M 725.5,278.5 C 726.239,278.369 726.906,278.536 727.5,279C 726.563,279.692 725.897,279.525 725.5,278.5 Z"/></g>
<g><path style="opacity:1" fill="#FFFFFF" d="M 408.5,280.5 C 407.833,279.167 407.833,279.167 408.5,280.5 Z"/></g>
<g><path style="opacity:1" fill="#FFFFFF" d="M 698.5,279.5 C 699.833,280.167 699.833,280.167 698.5,279.5 Z"/></g>
<g><path style="opacity:1" fill="#FFFFFF" d="M 705.5,280.5 C 704.761,280.631 704.094,280.464 703.5,280C 704.437,279.308 705.103,279.475 705.5,280.5 Z"/></g>
<g><path style="opacity:1" fill="#FFFFFF" d="M 655.5,280.5 C 656.833,281.167 656.833,281.167 655.5,280.5 Z"/></g>
<g><path style="opacity:1" fill="#FFFFFF" d="M 658.5,281.5 C 659.833,282.167 659.833,282.167 658.5,281.5 Z"/></g>
<g><path style="opacity:1" fill="#FFFFFF" d="M 698.5,281.5 C 699.833,282.167 699.833,282.167 698.5,281.5 Z"/></g>
<g><path style="opacity:1" fill="#FFFFFF" d="M 718.5,281.5 C 719.833,282.167 719.833,282.167 718.5,281.5 Z"/></g>
<g><path style="opacity:1" fill="#FFFFFF" d="M 399.5,282.5 C 400.833,283.167 400.833,283.167 399.5,282.5 Z"/></g>
<g><path style="opacity:1" fill="#FFFFFF" d="M 401.5,282.5 C 402.833,283.167 402.833,283.167 401.5,282.5 Z"/></g>
<g><path style="opacity:1" fill="#FFFFFF" d="M 715.5,282.5 C 716.833,283.167 716.833,283.167 715.5,282.5 Z"/></g>
<g><path style="opacity:1" fill="#FFFFFF" d="M 662.5,284.5 C 663.833,285.167 663.833,285.167 662.5,284.5 Z"/></g>
<g><path style="opacity:1" fill="#FFFFFF" d="M 842.5,284.5 C 843.833,285.167 843.833,285.167 842.5,284.5 Z"/></g>
<g><path style="opacity:1" fill="#FFFFFF" d="M 709.5,284.5 C 710.525,284.897 710.692,285.563 710,286.5C 709.23,287.598 708.397,287.598 707.5,286.5C 708.167,285.833 708.833,285.167 709.5,284.5 Z"/></g>
<g><path style="opacity:1" fill="#FFFFFF" d="M 717.5,285.5 C 718.833,286.167 718.833,286.167 717.5,285.5 Z"/></g>
<g><path style="opacity:1" fill="#FFFFFF" d="M 707.5,286.5 C 706.833,287.167 706.833,287.167 707.5,286.5 Z"/></g>
<g><path style="opacity:1" fill="#FFFFFF" d="M 394.5,288.5 C 393.833,287.167 393.833,287.167 394.5,288.5 Z"/></g>
<g><path style="opacity:1" fill="#FFFFFF" d="M 702.5,288.5 C 703.833,289.167 703.833,289.167 702.5,288.5 Z"/></g>
<g><path style="opacity:1" fill="#FFFFFF" d="M 391.5,290.5 C 390.833,289.167 390.833,289.167 391.5,290.5 Z"/></g>
<g><path style="opacity:1" fill="#FFFFFF" d="M 671.5,290.5 C 672.833,291.167 672.833,291.167 671.5,290.5 Z"/></g>
<g><path style="opacity:1" fill="#FFFFFF" d="M 675.5,290.5 C 676.833,291.167 676.833,291.167 675.5,290.5 Z"/></g>
<g><path style="opacity:1" fill="#FFFFFF" d="M 791.5,290.5 C 792.833,291.167 792.833,291.167 791.5,290.5 Z"/></g>
<g><path style="opacity:1" fill="#FFFFFF" d="M 835.5,294.5 C 836.833,295.167 836.833,295.167 835.5,294.5 Z"/></g>
<g><path style="opacity:1" fill="#FFFFFF" d="M 833.5,298.5 C 834.833,299.167 834.833,299.167 833.5,298.5 Z"/></g>
<g><path style="opacity:1" fill="#FFFFFF" d="M 683.5,299.5 C 684.833,300.167 684.833,300.167 683.5,299.5 Z"/></g>
<g><path style="opacity:1" fill="#FFFFFF" d="M 830.5,302.5 C 831.833,303.167 831.833,303.167 830.5,302.5 Z"/></g>
<g><path style="opacity:1" fill="#FFFFFF" d="M 366.5,305.5 C 367.833,306.167 367.833,306.167 366.5,305.5 Z"/></g>
<g><path style="opacity:1" fill="#FFFFFF" d="M 691.5,305.5 C 692.833,306.167 692.833,306.167 691.5,305.5 Z"/></g>
<g><path style="opacity:1" fill="#FFFFFF" d="M 694.5,305.5 C 695.833,306.167 695.833,306.167 694.5,305.5 Z"/></g>
<g><path style="opacity:1" fill="#FFFFFF" d="M 829.5,306.5 C 830.833,307.167 830.833,307.167 829.5,306.5 Z"/></g>
<g><path style="opacity:1" fill="#FFFFFF" d="M 364.5,310.5 C 363.833,309.167 363.833,309.167 364.5,310.5 Z"/></g>
<g><path style="opacity:1" fill="#FFFFFF" d="M 776.5,311.5 C 777.833,312.167 777.833,312.167 776.5,311.5 Z"/></g>
<g><path style="opacity:1" fill="#FFFFFF" d="M 359.5,314.5 C 358.833,313.167 358.833,313.167 359.5,314.5 Z"/></g>
<g><path style="opacity:1" fill="#FFFFFF" d="M 702.5,313.5 C 703.833,314.167 703.833,314.167 702.5,313.5 Z"/></g>
<g><path style="opacity:1" fill="#FFFFFF" d="M 700.5,315.5 C 701.833,316.167 701.833,316.167 700.5,315.5 Z"/></g>
<g><path style="opacity:1" fill="#FFFFFF" d="M 356.5,317.5 C 355.833,316.167 355.833,316.167 356.5,317.5 Z"/></g>
<g><path style="opacity:1" fill="#FFFFFF" d="M 695.5,318.5 C 696.833,319.167 696.833,319.167 695.5,318.5 Z"/></g>
<g><path style="opacity:1" fill="#FFFFFF" d="M 768.5,323.5 C 767.833,322.167 767.833,322.167 768.5,323.5 Z"/></g>
<g><path style="opacity:1" fill="#FFFFFF" d="M 812.5,325.5 C 813.833,326.167 813.833,326.167 812.5,325.5 Z"/></g>
<g><path style="opacity:1" fill="#FFFFFF" d="M 684.5,326.5 C 685.833,327.167 685.833,327.167 684.5,326.5 Z"/></g>
<g><path style="opacity:1" fill="#FFFFFF" d="M 675.5,333.5 C 676.833,334.167 676.833,334.167 675.5,333.5 Z"/></g>
<g><path style="opacity:1" fill="#FFFFFF" d="M 673.5,334.5 C 674.833,335.167 674.833,335.167 673.5,334.5 Z"/></g>
<g><path style="opacity:1" fill="#FFFFFF" d="M 336.5,335.5 C 337.833,336.167 337.833,336.167 336.5,335.5 Z"/></g>
<g><path style="opacity:1" fill="#FFFFFF" d="M 336.5,338.5 C 335.833,337.167 335.833,337.167 336.5,338.5 Z"/></g>
<g><path style="opacity:1" fill="#FFFFFF" d="M 751.5,338.5 C 752.525,338.897 752.692,339.563 752,340.5C 751.536,339.906 751.369,339.239 751.5,338.5 Z"/></g>
<g><path style="opacity:1" fill="#FFFFFF" d="M 662.5,342.5 C 663.833,343.167 663.833,343.167 662.5,342.5 Z"/></g>
<g><path style="opacity:1" fill="#FFFFFF" d="M 749.5,344.5 C 748.833,343.167 748.833,343.167 749.5,344.5 Z"/></g>
<g><path style="opacity:1" fill="#FFFFFF" d="M 662.5,345.5 C 663.833,346.167 663.833,346.167 662.5,345.5 Z"/></g>
<g><path style="opacity:1" fill="#FFFFFF" d="M 798.5,345.5 C 799.833,346.167 799.833,346.167 798.5,345.5 Z"/></g>
<g><path style="opacity:1" fill="#FFFFFF" d="M 652.5,349.5 C 653.833,350.167 653.833,350.167 652.5,349.5 Z"/></g>
<g><path style="opacity:1" fill="#FFFFFF" d="M 659.5,349.5 C 660.833,350.167 660.833,350.167 659.5,349.5 Z"/></g>
<g><path style="opacity:1" fill="#FFFFFF" d="M 651.5,350.5 C 651.833,350.5 652.167,350.5 652.5,350.5C 652.315,351.17 651.981,351.17 651.5,350.5 Z"/></g>
<g><path style="opacity:1" fill="#FFFFFF" d="M 324.5,351.5 C 325.833,352.167 325.833,352.167 324.5,351.5 Z"/></g>
<g><path style="opacity:1" fill="#FFFFFF" d="M 740.5,351.5 C 741.833,352.167 741.833,352.167 740.5,351.5 Z"/></g>
<g><path style="opacity:1" fill="#FFFFFF" d="M 737.5,354.5 C 738.833,355.167 738.833,355.167 737.5,354.5 Z"/></g>
<g><path style="opacity:1" fill="#FFFFFF" d="M 787.5,354.5 C 788.525,354.897 788.692,355.563 788,356.5C 787.536,355.906 787.369,355.239 787.5,354.5 Z"/></g>
<g><path style="opacity:1" fill="#FFFFFF" d="M 644.5,355.5 C 645.833,356.167 645.833,356.167 644.5,355.5 Z"/></g>
<g><path style="opacity:1" fill="#FFFFFF" d="M 737.5,355.5 C 736.833,356.167 736.833,356.167 737.5,355.5 Z"/></g>
<g><path style="opacity:1" fill="#FFFFFF" d="M 321.5,358.5 C 320.833,357.167 320.833,357.167 321.5,358.5 Z"/></g>
<g><path style="opacity:1" fill="#FFFFFF" d="M 383.5,358.5 C 383.897,357.475 384.563,357.308 385.5,358C 384.906,358.464 384.239,358.631 383.5,358.5 Z"/></g>
<g><path style="opacity:1" fill="#FFFFFF" d="M 387.5,358.5 C 387.897,357.475 388.563,357.308 389.5,358C 388.906,358.464 388.239,358.631 387.5,358.5 Z"/></g>
<g><path style="opacity:1" fill="#FFFFFF" d="M 403.5,357.5 C 404.833,358.167 404.833,358.167 403.5,357.5 Z"/></g>
<g><path style="opacity:1" fill="#FFFFFF" d="M 405.5,357.5 C 406.833,358.167 406.833,358.167 405.5,357.5 Z"/></g>
<g><path style="opacity:1" fill="#FFFFFF" d="M 407.5,358.5 C 407.897,357.475 408.563,357.308 409.5,358C 408.906,358.464 408.239,358.631 407.5,358.5 Z"/></g>
<g><path style="opacity:1" fill="#FFFFFF" d="M 410.5,358.5 C 410.897,357.475 411.563,357.308 412.5,358C 411.906,358.464 411.239,358.631 410.5,358.5 Z"/></g>
<g><path style="opacity:1" fill="#FFFFFF" d="M 643.5,358.5 C 643.897,357.475 644.563,357.308 645.5,358C 644.906,358.464 644.239,358.631 643.5,358.5 Z"/></g>
<g><path style="opacity:1" fill="#FFFFFF" d="M 788.5,357.5 C 789.833,358.167 789.833,358.167 788.5,357.5 Z"/></g>
<g><path style="opacity:1" fill="#FFFFFF" d="M 376.5,358.5 C 377.833,359.167 377.833,359.167 376.5,358.5 Z"/></g>
<g><path style="opacity:1" fill="#FFFFFF" d="M 379.5,359.5 C 379.897,358.475 380.563,358.308 381.5,359C 380.906,359.464 380.239,359.631 379.5,359.5 Z"/></g>
<g><path style="opacity:1" fill="#FFFFFF" d="M 416.5,358.5 C 417.833,359.167 417.833,359.167 416.5,358.5 Z"/></g>
<g><path style="opacity:1" fill="#FFFFFF" d="M 640.5,358.5 C 641.833,359.167 641.833,359.167 640.5,358.5 Z"/></g>
<g><path style="opacity:1" fill="#FFFFFF" d="M 732.5,359.5 C 733.833,360.167 733.833,360.167 732.5,359.5 Z"/></g>
<g><path style="opacity:1" fill="#FFFFFF" d="M 730.5,361.5 C 731.833,362.167 731.833,362.167 730.5,361.5 Z"/></g>
<g><path style="opacity:1" fill="#FFFFFF" d="M 433.5,362.5 C 437.243,362.459 437.41,363.126 434,364.5C 433.536,363.906 433.369,363.239 433.5,362.5 Z"/></g>
<g><path style="opacity:1" fill="#FFFFFF" d="M 362.5,363.5 C 363.833,364.167 363.833,364.167 362.5,363.5 Z"/></g>
<g><path style="opacity:1" fill="#FFFFFF" d="M 633.5,363.5 C 634.833,364.167 634.833,364.167 633.5,363.5 Z"/></g>
<g><path style="opacity:1" fill="#FFFFFF" d="M 441.5,364.5 C 442.833,365.167 442.833,365.167 441.5,364.5 Z"/></g>
<g><path style="opacity:1" fill="#FFFFFF" d="M 316.5,366.5 C 315.833,365.167 315.833,365.167 316.5,366.5 Z"/></g>
<g><path style="opacity:1" fill="#FFFFFF" d="M 435.5,365.5 C 436.833,366.167 436.833,366.167 435.5,365.5 Z"/></g>
<g><path style="opacity:1" fill="#FFFFFF" d="M 445.5,366.5 C 444.761,366.631 444.094,366.464 443.5,366C 444.437,365.308 445.103,365.475 445.5,366.5 Z"/></g>
<g><path style="opacity:1" fill="#FFFFFF" d="M 445.5,366.5 C 446.239,366.369 446.906,366.536 447.5,367C 446.563,367.692 445.897,367.525 445.5,366.5 Z"/></g>
<g><path style="opacity:1" fill="#FFFFFF" d="M 449.5,366.5 C 448.833,367.167 448.833,367.167 449.5,366.5 Z"/></g>
<g><path style="opacity:1" fill="#FFFFFF" d="M 724.5,367.5 C 725.833,368.167 725.833,368.167 724.5,367.5 Z"/></g>
<g><path style="opacity:1" fill="#FFFFFF" d="M 357.5,369.5 C 358.525,369.897 358.692,370.563 358,371.5C 357.536,370.906 357.369,370.239 357.5,369.5 Z"/></g>
<g><path style="opacity:1" fill="#FFFFFF" d="M 772.5,369.5 C 773.833,370.167 773.833,370.167 772.5,369.5 Z"/></g>
<g><path style="opacity:1" fill="#FFFFFF" d="M 457.5,371.5 C 457.897,370.475 458.563,370.308 459.5,371C 458.906,371.464 458.239,371.631 457.5,371.5 Z"/></g>
<g><path style="opacity:1" fill="#FFFFFF" d="M 719.5,370.5 C 720.833,371.167 720.833,371.167 719.5,370.5 Z"/></g>
<g><path style="opacity:1" fill="#FFFFFF" d="M 464.5,372.5 C 463.833,373.167 463.833,373.167 464.5,372.5 Z"/></g>
<g><path style="opacity:1" fill="#FFFFFF" d="M 619.5,373.5 C 620.239,373.369 620.906,373.536 621.5,374C 620.563,374.692 619.897,374.525 619.5,373.5 Z"/></g>
<g><path style="opacity:1" fill="#FFFFFF" d="M 474.5,377.5 C 475.833,378.167 475.833,378.167 474.5,377.5 Z"/></g>
<g><path style="opacity:1" fill="#FFFFFF" d="M 307.5,379.5 C 308.833,380.167 308.833,380.167 307.5,379.5 Z"/></g>
<g><path style="opacity:1" fill="#FFFFFF" d="M 473.5,379.5 C 474.833,380.167 474.833,380.167 473.5,379.5 Z"/></g>
<g><path style="opacity:1" fill="#FFFFFF" d="M 473.5,380.5 C 472.833,381.167 472.833,381.167 473.5,380.5 Z"/></g>
<g><path style="opacity:1" fill="#FFFFFF" d="M 484.5,381.5 C 484.103,382.525 483.437,382.692 482.5,382C 483.094,381.536 483.761,381.369 484.5,381.5 Z"/></g>
<g><path style="opacity:1" fill="#FFFFFF" d="M 611.5,381.5 C 612.833,382.167 612.833,382.167 611.5,381.5 Z"/></g>
<g><path style="opacity:1" fill="#FFFFFF" d="M 706.5,386.5 C 705.475,386.103 705.308,385.437 706,384.5C 706.464,385.094 706.631,385.761 706.5,386.5 Z"/></g>
<g><path style="opacity:1" fill="#FFFFFF" d="M 490.5,385.5 C 491.833,386.167 491.833,386.167 490.5,385.5 Z"/></g>
<g><path style="opacity:1" fill="#FFFFFF" d="M 490.5,386.5 C 490.631,387.239 490.464,387.906 490,388.5C 489.308,387.563 489.475,386.897 490.5,386.5 Z"/></g>
<g><path style="opacity:1" fill="#FFFFFF" d="M 601.5,386.5 C 602.833,387.167 602.833,387.167 601.5,386.5 Z"/></g>
<g><path style="opacity:1" fill="#FFFFFF" d="M 703.5,386.5 C 704.833,387.167 704.833,387.167 703.5,386.5 Z"/></g>
<g><path style="opacity:1" fill="#FFFFFF" d="M 495.5,388.5 C 496.833,389.167 496.833,389.167 495.5,388.5 Z"/></g>
<g><path style="opacity:1" fill="#FFFFFF" d="M 499.5,389.5 C 498.833,390.167 498.833,390.167 499.5,389.5 Z"/></g>
<g><path style="opacity:1" fill="#FFFFFF" d="M 604.5,389.5 C 605.833,390.167 605.833,390.167 604.5,389.5 Z"/></g>
<g><path style="opacity:1" fill="#FFFFFF" d="M 385.5,393.5 C 386.833,394.167 386.833,394.167 385.5,393.5 Z"/></g>
<g><path style="opacity:1" fill="#FFFFFF" d="M 747.5,394.5 C 748.833,395.167 748.833,395.167 747.5,394.5 Z"/></g>
<g><path style="opacity:1" fill="#FFFFFF" d="M 299.5,397.5 C 300.833,398.167 300.833,398.167 299.5,397.5 Z"/></g>
<g><path style="opacity:1" fill="#FFFFFF" d="M 513.5,397.5 C 512.833,398.167 512.833,398.167 513.5,397.5 Z"/></g>
<g><path style="opacity:1" fill="#FFFFFF" d="M 692.5,398.5 C 691.833,397.167 691.833,397.167 692.5,398.5 Z"/></g>
<g><path style="opacity:1" fill="#FFFFFF" d="M 404.5,399.5 C 405.833,400.167 405.833,400.167 404.5,399.5 Z"/></g>
<g><path style="opacity:1" fill="#FFFFFF" d="M 690.5,400.5 C 689.833,399.167 689.833,399.167 690.5,400.5 Z"/></g>
<g><path style="opacity:1" fill="#FFFFFF" d="M 687.5,402.5 C 686.833,401.167 686.833,401.167 687.5,402.5 Z"/></g>
<g><path style="opacity:1" fill="#FFFFFF" d="M 406.5,402.5 C 407.833,403.167 407.833,403.167 406.5,402.5 Z"/></g>
<g><path style="opacity:1" fill="#FFFFFF" d="M 684.5,405.5 C 683.833,404.167 683.833,404.167 684.5,405.5 Z"/></g>
<g><path style="opacity:1" fill="#FFFFFF" d="M 296.5,411.5 C 295.427,410.749 295.26,409.749 296,408.5C 296.483,409.448 296.649,410.448 296.5,411.5 Z"/></g>
<g><path style="opacity:1" fill="#FFFFFF" d="M 737.5,408.5 C 738.833,409.167 738.833,409.167 737.5,408.5 Z"/></g>
<g><path style="opacity:1" fill="#FFFFFF" d="M 409.5,409.5 C 410.833,410.167 410.833,410.167 409.5,409.5 Z"/></g>
<g><path style="opacity:1" fill="#FFFFFF" d="M 411.5,410.5 C 412.833,411.167 412.833,411.167 411.5,410.5 Z"/></g>
<g><path style="opacity:1" fill="#FFFFFF" d="M 531.5,411.5 C 532.833,412.167 532.833,412.167 531.5,411.5 Z"/></g>
<g><path style="opacity:1" fill="#FFFFFF" d="M 563.5,413.5 C 564.239,413.369 564.906,413.536 565.5,414C 564.563,414.692 563.897,414.525 563.5,413.5 Z"/></g>
<g><path style="opacity:1" fill="#FFFFFF" d="M 553.5,420.5 C 554.833,421.167 554.833,421.167 553.5,420.5 Z"/></g>
<g><path style="opacity:1" fill="#FFFFFF" d="M 741.5,422.5 C 740.833,421.167 740.833,421.167 741.5,422.5 Z"/></g>
<g><path style="opacity:1" fill="#FFFFFF" d="M 741.5,422.5 C 742.833,423.167 742.833,423.167 741.5,422.5 Z"/></g>
<g><path style="opacity:1" fill="#FFFFFF" d="M 657.5,425.5 C 658.833,426.167 658.833,426.167 657.5,425.5 Z"/></g>
<g><path style="opacity:1" fill="#FFFFFF" d="M 435.5,428.5 C 435.897,427.475 436.563,427.308 437.5,428C 436.906,428.464 436.239,428.631 435.5,428.5 Z"/></g>
<g><path style="opacity:1" fill="#FFFFFF" d="M 289.5,431.5 C 290.833,432.167 290.833,432.167 289.5,431.5 Z"/></g>
<g><path style="opacity:1" fill="#FFFFFF" d="M 441.5,431.5 C 442.833,432.167 442.833,432.167 441.5,431.5 Z"/></g>
<g><path style="opacity:1" fill="#FFFFFF" d="M 444.5,433.5 C 445.833,434.167 445.833,434.167 444.5,433.5 Z"/></g>
<g><path style="opacity:1" fill="#FFFFFF" d="M 289.5,434.5 C 290.833,435.167 290.833,435.167 289.5,434.5 Z"/></g>
<g><path style="opacity:1" fill="#FFFFFF" d="M 642.5,440.5 C 641.761,440.631 641.094,440.464 640.5,440C 641.437,439.308 642.103,439.475 642.5,440.5 Z"/></g>
<g><path style="opacity:1" fill="#FFFFFF" d="M 631.5,440.5 C 632.833,441.167 632.833,441.167 631.5,440.5 Z"/></g>
<g><path style="opacity:1" fill="#FFFFFF" d="M 633.5,440.5 C 634.525,440.897 634.692,441.563 634,442.5C 633.536,441.906 633.369,441.239 633.5,440.5 Z"/></g>
<g><path style="opacity:1" fill="#FFFFFF" d="M 745.5,440.5 C 746.833,441.167 746.833,441.167 745.5,440.5 Z"/></g>
<g><path style="opacity:1" fill="#FFFFFF" d="M 457.5,442.5 C 458.833,443.167 458.833,443.167 457.5,442.5 Z"/></g>
<g><path style="opacity:1" fill="#FFFFFF" d="M 287.5,444.5 C 288.833,445.167 288.833,445.167 287.5,444.5 Z"/></g>
<g><path style="opacity:1" fill="#FFFFFF" d="M 459.5,444.5 C 460.833,445.167 460.833,445.167 459.5,444.5 Z"/></g>
<g><path style="opacity:1" fill="#FFFFFF" d="M 466.5,450.5 C 466.56,449.957 466.893,449.624 467.5,449.5C 468.773,450.257 468.773,450.923 467.5,451.5C 466.833,451.5 466.5,451.167 466.5,450.5 Z"/></g>
<g><path style="opacity:1" fill="#FFFFFF" d="M 626.5,449.5 C 627.833,450.167 627.833,450.167 626.5,449.5 Z"/></g>
<g><path style="opacity:1" fill="#FFFFFF" d="M 748.5,453.5 C 749.833,454.167 749.833,454.167 748.5,453.5 Z"/></g>
<g><path style="opacity:1" fill="#FFFFFF" d="M 620.5,455.5 C 621.833,456.167 621.833,456.167 620.5,455.5 Z"/></g>
<g><path style="opacity:1" fill="#FFFFFF" d="M 617.5,457.5 C 616.761,457.631 616.094,457.464 615.5,457C 616.437,456.308 617.103,456.475 617.5,457.5 Z"/></g>
<g><path style="opacity:1" fill="#FFFFFF" d="M 620.5,456.5 C 620.5,456.833 620.5,457.167 620.5,457.5C 619.83,457.019 619.83,456.685 620.5,456.5 Z"/></g>
<g><path style="opacity:1" fill="#FFFFFF" d="M 617.5,457.5 C 618.833,458.167 618.833,458.167 617.5,457.5 Z"/></g>
<g><path style="opacity:1" fill="#FFFFFF" d="M 617.5,458.5 C 616.833,459.167 616.833,459.167 617.5,458.5 Z"/></g>
<g><path style="opacity:1" fill="#FFFFFF" d="M 748.5,461.5 C 749.833,462.167 749.833,462.167 748.5,461.5 Z"/></g>
<g><path style="opacity:1" fill="#FFFFFF" d="M 608.5,463.5 C 609.833,464.167 609.833,464.167 608.5,463.5 Z"/></g>
<g><path style="opacity:1" fill="#FFFFFF" d="M 486.5,464.5 C 487.833,465.167 487.833,465.167 486.5,464.5 Z"/></g>
<g><path style="opacity:1" fill="#FFFFFF" d="M 749.5,478.5 C 750.833,479.167 750.833,479.167 749.5,478.5 Z"/></g>
<g><path style="opacity:1" fill="#FFFFFF" d="M 623.5,482.5 C 624.833,483.167 624.833,483.167 623.5,482.5 Z"/></g>
<g><path style="opacity:1" fill="#FFFFFF" d="M 749.5,482.5 C 750.833,483.167 750.833,483.167 749.5,482.5 Z"/></g>
<g><path style="opacity:1" fill="#FFFFFF" d="M 468.5,485.5 C 469.833,486.167 469.833,486.167 468.5,485.5 Z"/></g>
<g><path style="opacity:1" fill="#FFFFFF" d="M 288.5,493.5 C 288.631,494.239 288.464,494.906 288,495.5C 287.308,494.563 287.475,493.897 288.5,493.5 Z"/></g>
<g><path style="opacity:1" fill="#FFFFFF" d="M 748.5,495.5 C 749.833,496.167 749.833,496.167 748.5,495.5 Z"/></g>
<g><path style="opacity:1" fill="#FFFFFF" d="M 287.5,497.5 C 288.833,498.167 288.833,498.167 287.5,497.5 Z"/></g>
<g><path style="opacity:1" fill="#FFFFFF" d="M 748.5,497.5 C 749.833,498.167 749.833,498.167 748.5,497.5 Z"/></g>
<g><path style="opacity:1" fill="#FFFFFF" d="M 446.5,502.5 C 447.833,503.167 447.833,503.167 446.5,502.5 Z"/></g>
<g><path style="opacity:1" fill="#FFFFFF" d="M 747.5,502.5 C 748.833,503.167 748.833,503.167 747.5,502.5 Z"/></g>
<g><path style="opacity:1" fill="#FFFFFF" d="M 747.5,508.5 C 748.833,509.167 748.833,509.167 747.5,508.5 Z"/></g>
<g><path style="opacity:1" fill="#FFFFFF" d="M 436.5,509.5 C 437.833,510.167 437.833,510.167 436.5,509.5 Z"/></g>
<g><path style="opacity:1" fill="#FFFFFF" d="M 549.5,511.5 C 550.833,512.167 550.833,512.167 549.5,511.5 Z"/></g>
<g><path style="opacity:1" fill="#FFFFFF" d="M 541.5,513.5 C 540.833,512.167 540.833,512.167 541.5,513.5 Z"/></g>
<g><path style="opacity:1" fill="#FFFFFF" d="M 745.5,514.5 C 746.833,515.167 746.833,515.167 745.5,514.5 Z"/></g>
<g><path style="opacity:1" fill="#FFFFFF" d="M 427.5,516.5 C 428.833,517.167 428.833,517.167 427.5,516.5 Z"/></g>
<g><path style="opacity:1" fill="#FFFFFF" d="M 291.5,518.5 C 290.833,517.167 290.833,517.167 291.5,518.5 Z"/></g>
<g><path style="opacity:1" fill="#FFFFFF" d="M 426.5,517.5 C 426.833,517.5 427.167,517.5 427.5,517.5C 427.315,518.17 426.981,518.17 426.5,517.5 Z"/></g>
<g><path style="opacity:1" fill="#FFFFFF" d="M 658.5,517.5 C 658.631,518.239 658.464,518.906 658,519.5C 657.308,518.563 657.475,517.897 658.5,517.5 Z"/></g>
<g><path style="opacity:1" fill="#FFFFFF" d="M 521.5,520.5 C 522.833,521.167 522.833,521.167 521.5,520.5 Z"/></g>
<g><path style="opacity:1" fill="#FFFFFF" d="M 561.5,520.5 C 562.833,521.167 562.833,521.167 561.5,520.5 Z"/></g>
<g><path style="opacity:1" fill="#FFFFFF" d="M 519.5,522.5 C 520.833,523.167 520.833,523.167 519.5,522.5 Z"/></g>
<g><path style="opacity:1" fill="#FFFFFF" d="M 526.5,522.5 C 527.833,523.167 527.833,523.167 526.5,522.5 Z"/></g>
<g><path style="opacity:1" fill="#FFFFFF" d="M 418.5,523.5 C 419.833,524.167 419.833,524.167 418.5,523.5 Z"/></g>
<g><path style="opacity:1" fill="#FFFFFF" d="M 292.5,524.5 C 293.833,525.167 293.833,525.167 292.5,524.5 Z"/></g>
<g><path style="opacity:1" fill="#FFFFFF" d="M 520.5,524.5 C 521.833,525.167 521.833,525.167 520.5,524.5 Z"/></g>
<g><path style="opacity:1" fill="#FFFFFF" d="M 525.5,525.5 C 524.761,525.631 524.094,525.464 523.5,525C 524.437,524.308 525.103,524.475 525.5,525.5 Z"/></g>
<g><path style="opacity:1" fill="#FFFFFF" d="M 742.5,533.5 C 742.343,532.127 742.51,530.793 743,529.5C 743.765,531.066 743.598,532.399 742.5,533.5 Z"/></g>
<g><path style="opacity:1" fill="#FFFFFF" d="M 668.5,530.5 C 667.833,531.167 667.833,531.167 668.5,530.5 Z"/></g>
<g><path style="opacity:1" fill="#FFFFFF" d="M 411.5,533.5 C 412.833,534.167 412.833,534.167 411.5,533.5 Z"/></g>
<g><path style="opacity:1" fill="#FFFFFF" d="M 668.5,533.5 C 669.833,534.167 669.833,534.167 668.5,533.5 Z"/></g>
<g><path style="opacity:1" fill="#FFFFFF" d="M 742.5,533.5 C 742.631,534.239 742.464,534.906 742,535.5C 741.308,534.563 741.475,533.897 742.5,533.5 Z"/></g>
<g><path style="opacity:1" fill="#FFFFFF" d="M 404.5,534.5 C 405.833,535.167 405.833,535.167 404.5,534.5 Z"/></g>
<g><path style="opacity:1" fill="#FFFFFF" d="M 582.5,536.5 C 583.833,537.167 583.833,537.167 582.5,536.5 Z"/></g>
<g><path style="opacity:1" fill="#FFFFFF" d="M 673.5,536.5 C 672.833,537.167 672.833,537.167 673.5,536.5 Z"/></g>
<g><path style="opacity:1" fill="#FFFFFF" d="M 506.5,538.5 C 505.833,537.167 505.833,537.167 506.5,538.5 Z"/></g>
<g><path style="opacity:1" fill="#FFFFFF" d="M 582.5,537.5 C 581.833,538.167 581.833,538.167 582.5,537.5 Z"/></g>
<g><path style="opacity:1" fill="#FFFFFF" d="M 742.5,537.5 C 743.833,538.167 743.833,538.167 742.5,537.5 Z"/></g>
<g><path style="opacity:1" fill="#FFFFFF" d="M 296.5,538.5 C 297.833,539.167 297.833,539.167 296.5,538.5 Z"/></g>
<g><path style="opacity:1" fill="#FFFFFF" d="M 503.5,538.5 C 504.833,539.167 504.833,539.167 503.5,538.5 Z"/></g>
<g><path style="opacity:1" fill="#FFFFFF" d="M 396.5,540.5 C 397.833,541.167 397.833,541.167 396.5,540.5 Z"/></g>
<g><path style="opacity:1" fill="#FFFFFF" d="M 676.5,540.5 C 675.833,541.167 675.833,541.167 676.5,540.5 Z"/></g>
<g><path style="opacity:1" fill="#FFFFFF" d="M 739.5,540.5 C 741.76,541.238 741.927,542.238 740,543.5C 739.517,542.552 739.351,541.552 739.5,540.5 Z"/></g>
<g><path style="opacity:1" fill="#FFFFFF" d="M 298.5,540.5 C 298.631,541.239 298.464,541.906 298,542.5C 297.308,541.563 297.475,540.897 298.5,540.5 Z"/></g>
<g><path style="opacity:1" fill="#FFFFFF" d="M 500.5,542.5 C 499.833,541.167 499.833,541.167 500.5,542.5 Z"/></g>
<g><path style="opacity:1" fill="#FFFFFF" d="M 497.5,544.5 C 496.833,543.167 496.833,543.167 497.5,544.5 Z"/></g>
<g><path style="opacity:1" fill="#FFFFFF" d="M 300.5,545.5 C 299.833,546.167 299.833,546.167 300.5,545.5 Z"/></g>
<g><path style="opacity:1" fill="#FFFFFF" d="M 588.5,545.5 C 589.833,546.167 589.833,546.167 588.5,545.5 Z"/></g>
<g><path style="opacity:1" fill="#FFFFFF" d="M 680.5,546.5 C 679.833,547.167 679.833,547.167 680.5,546.5 Z"/></g>
<g><path style="opacity:1" fill="#FFFFFF" d="M 681.5,548.5 C 680.833,549.167 680.833,549.167 681.5,548.5 Z"/></g>
<g><path style="opacity:1" fill="#FFFFFF" d="M 681.5,550.5 C 682.833,551.167 682.833,551.167 681.5,550.5 Z"/></g>
<g><path style="opacity:1" fill="#FFFFFF" d="M 480.5,551.5 C 481.833,552.167 481.833,552.167 480.5,551.5 Z"/></g>
<g><path style="opacity:1" fill="#FFFFFF" d="M 684.5,552.5 C 683.833,553.167 683.833,553.167 684.5,552.5 Z"/></g>
<g><path style="opacity:1" fill="#FFFFFF" d="M 479.5,554.5 C 478.833,553.167 478.833,553.167 479.5,554.5 Z"/></g>
<g><path style="opacity:1" fill="#FFFFFF" d="M 479.5,554.5 C 480.167,554.5 480.5,554.833 480.5,555.5C 480.167,555.167 479.833,554.833 479.5,554.5 Z"/></g>
<g><path style="opacity:1" fill="#FFFFFF" d="M 684.5,555.5 C 685.833,556.167 685.833,556.167 684.5,555.5 Z"/></g>
<g><path style="opacity:1" fill="#FFFFFF" d="M 475.5,556.5 C 476.833,557.167 476.833,557.167 475.5,556.5 Z"/></g>
<g><path style="opacity:1" fill="#FFFFFF" d="M 733.5,558.5 C 734.833,559.167 734.833,559.167 733.5,558.5 Z"/></g>
<g><path style="opacity:1" fill="#FFFFFF" d="M 731.5,562.5 C 732.525,562.897 732.692,563.563 732,564.5C 731.536,563.906 731.369,563.239 731.5,562.5 Z"/></g>
<g><path style="opacity:1" fill="#FFFFFF" d="M 306.5,565.5 C 307.833,566.167 307.833,566.167 306.5,565.5 Z"/></g>
<g><path style="opacity:1" fill="#FFFFFF" d="M 364.5,565.5 C 365.833,566.167 365.833,566.167 364.5,565.5 Z"/></g>
<g><path style="opacity:1" fill="#FFFFFF" d="M 730.5,565.5 C 731.833,566.167 731.833,566.167 730.5,565.5 Z"/></g>
<g><path style="opacity:1" fill="#FFFFFF" d="M 288.5,569.5 C 288.897,568.475 289.563,568.308 290.5,569C 289.906,569.464 289.239,569.631 288.5,569.5 Z"/></g>
<g><path style="opacity:1" fill="#FFFFFF" d="M 692.5,568.5 C 691.833,569.167 691.833,569.167 692.5,568.5 Z"/></g>
<g><path style="opacity:1" fill="#FFFFFF" d="M 287.5,570.5 C 288.833,571.167 288.833,571.167 287.5,570.5 Z"/></g>
<g><path style="opacity:1" fill="#FFFFFF" d="M 355.5,572.5 C 356.833,573.167 356.833,573.167 355.5,572.5 Z"/></g>
<g><path style="opacity:1" fill="#FFFFFF" d="M 293.5,574.5 C 293.897,573.475 294.563,573.308 295.5,574C 294.906,574.464 294.239,574.631 293.5,574.5 Z"/></g>
<g><path style="opacity:1" fill="#FFFFFF" d="M 313.5,573.5 C 312.833,574.167 312.833,574.167 313.5,573.5 Z"/></g>
<g><path style="opacity:1" fill="#FFFFFF" d="M 726.5,573.5 C 727.833,574.167 727.833,574.167 726.5,573.5 Z"/></g>
<g><path style="opacity:1" fill="#FFFFFF" d="M 352.5,574.5 C 353.833,575.167 353.833,575.167 352.5,574.5 Z"/></g>
<g><path style="opacity:1" fill="#FFFFFF" d="M 440.5,575.5 C 441.833,576.167 441.833,576.167 440.5,575.5 Z"/></g>
<g><path style="opacity:1" fill="#FFFFFF" d="M 438.5,576.5 C 439.833,577.167 439.833,577.167 438.5,576.5 Z"/></g>
<g><path style="opacity:1" fill="#FFFFFF" d="M 444.5,577.5 C 443.833,576.167 443.833,576.167 444.5,577.5 Z"/></g>
<g><path style="opacity:1" fill="#FFFFFF" d="M 442.5,578.5 C 441.833,577.167 441.833,577.167 442.5,578.5 Z"/></g>
<g><path style="opacity:1" fill="#FFFFFF" d="M 440.5,579.5 C 439.833,578.167 439.833,578.167 440.5,579.5 Z"/></g>
<g><path style="opacity:1" fill="#FFFFFF" d="M 435.5,580.5 C 436.833,581.167 436.833,581.167 435.5,580.5 Z"/></g>
<g><path style="opacity:1" fill="#FFFFFF" d="M 276.5,582.5 C 275.833,581.167 275.833,581.167 276.5,582.5 Z"/></g>
<g><path style="opacity:1" fill="#FFFFFF" d="M 432.5,584.5 C 431.833,583.167 431.833,583.167 432.5,584.5 Z"/></g>
<g><path style="opacity:1" fill="#FFFFFF" d="M 654.5,585.5 C 655.833,586.167 655.833,586.167 654.5,585.5 Z"/></g>
<g><path style="opacity:1" fill="#FFFFFF" d="M 476.5,586.5 C 477.833,587.167 477.833,587.167 476.5,586.5 Z"/></g>
<g><path style="opacity:1" fill="#FFFFFF" d="M 322.5,586.5 C 322.631,587.239 322.464,587.906 322,588.5C 321.308,587.563 321.475,586.897 322.5,586.5 Z"/></g>
<g><path style="opacity:1" fill="#FFFFFF" d="M 651.5,587.5 C 652.833,588.167 652.833,588.167 651.5,587.5 Z"/></g>
<g><path style="opacity:1" fill="#FFFFFF" d="M 473.5,588.5 C 474.833,589.167 474.833,589.167 473.5,588.5 Z"/></g>
<g><path style="opacity:1" fill="#FFFFFF" d="M 476.5,590.5 C 475.833,589.167 475.833,589.167 476.5,590.5 Z"/></g>
<g><path style="opacity:1" fill="#FFFFFF" d="M 470.5,590.5 C 471.833,591.167 471.833,591.167 470.5,590.5 Z"/></g>
<g><path style="opacity:1" fill="#FFFFFF" d="M 412.5,591.5 C 413.833,592.167 413.833,592.167 412.5,591.5 Z"/></g>
<g><path style="opacity:1" fill="#FFFFFF" d="M 416.5,591.5 C 417.833,592.167 417.833,592.167 416.5,591.5 Z"/></g>
<g><path style="opacity:1" fill="#FFFFFF" d="M 473.5,592.5 C 472.833,591.167 472.833,591.167 473.5,592.5 Z"/></g>
<g><path style="opacity:1" fill="#FFFFFF" d="M 715.5,592.5 C 716.833,593.167 716.833,593.167 715.5,592.5 Z"/></g>
<g><path style="opacity:1" fill="#FFFFFF" d="M 260.5,597.5 C 259.833,596.167 259.833,596.167 260.5,597.5 Z"/></g>
<g><path style="opacity:1" fill="#FFFFFF" d="M 460.5,596.5 C 461.167,596.5 461.5,596.833 461.5,597.5C 461.167,597.167 460.833,596.833 460.5,596.5 Z"/></g>
<g><path style="opacity:1" fill="#FFFFFF" d="M 460.5,597.5 C 459.833,598.167 459.833,598.167 460.5,597.5 Z"/></g>
<g><path style="opacity:1" fill="#FFFFFF" d="M 461.5,597.5 C 462.833,598.167 462.833,598.167 461.5,597.5 Z"/></g>
<g><path style="opacity:1" fill="#FFFFFF" d="M 256.5,599.5 C 257.833,600.167 257.833,600.167 256.5,599.5 Z"/></g>
<g><path style="opacity:1" fill="#FFFFFF" d="M 254.5,601.5 C 255.833,602.167 255.833,602.167 254.5,601.5 Z"/></g>
<g><path style="opacity:1" fill="#FFFFFF" d="M 458.5,601.5 C 459.833,602.167 459.833,602.167 458.5,601.5 Z"/></g>
<g><path style="opacity:1" fill="#FFFFFF" d="M 449.5,603.5 C 450.833,604.167 450.833,604.167 449.5,603.5 Z"/></g>
<g><path style="opacity:1" fill="#FFFFFF" d="M 456.5,603.5 C 457.833,604.167 457.833,604.167 456.5,603.5 Z"/></g>
<g><path style="opacity:1" fill="#FFFFFF" d="M 251.5,604.5 C 252.833,605.167 252.833,605.167 251.5,604.5 Z"/></g>
<g><path style="opacity:1" fill="#FFFFFF" d="M 387.5,608.5 C 386.833,607.167 386.833,607.167 387.5,608.5 Z"/></g>
<g><path style="opacity:1" fill="#FFFFFF" d="M 441.5,608.5 C 442.833,609.167 442.833,609.167 441.5,608.5 Z"/></g>
<g><path style="opacity:1" fill="#FFFFFF" d="M 447.5,610.5 C 446.833,609.167 446.833,609.167 447.5,610.5 Z"/></g>
<g><path style="opacity:1" fill="#FFFFFF" d="M 447.5,610.5 C 448.167,610.5 448.5,610.833 448.5,611.5C 448.167,611.167 447.833,610.833 447.5,610.5 Z"/></g>
<g><path style="opacity:1" fill="#FFFFFF" d="M 436.5,611.5 C 437.833,612.167 437.833,612.167 436.5,611.5 Z"/></g>
<g><path style="opacity:1" fill="#FFFFFF" d="M 244.5,614.5 C 243.833,613.167 243.833,613.167 244.5,614.5 Z"/></g>
<g><path style="opacity:1" fill="#FFFFFF" d="M 268.5,613.5 C 269.833,614.167 269.833,614.167 268.5,613.5 Z"/></g>
<g><path style="opacity:1" fill="#FFFFFF" d="M 432.5,613.5 C 433.833,614.167 433.833,614.167 432.5,613.5 Z"/></g>
<g><path style="opacity:1" fill="#FFFFFF" d="M 441.5,616.5 C 440.833,615.167 440.833,615.167 441.5,616.5 Z"/></g>
<g><path style="opacity:1" fill="#FFFFFF" d="M 240.5,616.5 C 241.833,617.167 241.833,617.167 240.5,616.5 Z"/></g>
<g><path style="opacity:1" fill="#FFFFFF" d="M 433.5,617.5 C 434.833,618.167 434.833,618.167 433.5,617.5 Z"/></g>
<g><path style="opacity:1" fill="#FFFFFF" d="M 240.5,619.5 C 239.833,618.167 239.833,618.167 240.5,619.5 Z"/></g>
<g><path style="opacity:1" fill="#FFFFFF" d="M 431.5,618.5 C 432.833,619.167 432.833,619.167 431.5,618.5 Z"/></g>
<g><path style="opacity:1" fill="#FFFFFF" d="M 262.5,621.5 C 263.833,622.167 263.833,622.167 262.5,621.5 Z"/></g>
<g><path style="opacity:1" fill="#FFFFFF" d="M 419.5,621.5 C 420.833,622.167 420.833,622.167 419.5,621.5 Z"/></g>
<g><path style="opacity:1" fill="#FFFFFF" d="M 692.5,621.5 C 693.833,622.167 693.833,622.167 692.5,621.5 Z"/></g>
<g><path style="opacity:1" fill="#FFFFFF" d="M 416.5,622.5 C 417.833,623.167 417.833,623.167 416.5,622.5 Z"/></g>
<g><path style="opacity:1" fill="#FFFFFF" d="M 353.5,624.5 C 352.833,623.167 352.833,623.167 353.5,624.5 Z"/></g>
<g><path style="opacity:1" fill="#FFFFFF" d="M 427.5,624.5 C 428.833,625.167 428.833,625.167 427.5,624.5 Z"/></g>
<g><path style="opacity:1" fill="#FFFFFF" d="M 425.5,625.5 C 426.833,626.167 426.833,626.167 425.5,625.5 Z"/></g>
<g><path style="opacity:1" fill="#FFFFFF" d="M 345.5,626.5 C 346.833,627.167 346.833,627.167 345.5,626.5 Z"/></g>
<g><path style="opacity:1" fill="#FFFFFF" d="M 423.5,626.5 C 424.833,627.167 424.833,627.167 423.5,626.5 Z"/></g>
<g><path style="opacity:1" fill="#FFFFFF" d="M 339.5,628.5 C 340.833,629.167 340.833,629.167 339.5,628.5 Z"/></g>
<g><path style="opacity:1" fill="#FFFFFF" d="M 260.5,629.5 C 261.833,630.167 261.833,630.167 260.5,629.5 Z"/></g>
<g><path style="opacity:1" fill="#FFFFFF" d="M 403.5,629.5 C 404.239,629.369 404.906,629.536 405.5,630C 404.563,630.692 403.897,630.525 403.5,629.5 Z"/></g>
<g><path style="opacity:1" fill="#FFFFFF" d="M 411.5,629.5 C 412.833,630.167 412.833,630.167 411.5,629.5 Z"/></g>
<g><path style="opacity:1" fill="#FFFFFF" d="M 413.5,629.5 C 414.833,630.167 414.833,630.167 413.5,629.5 Z"/></g>
<g><path style="opacity:1" fill="#FFFFFF" d="M 684.5,629.5 C 685.833,630.167 685.833,630.167 684.5,629.5 Z"/></g>
<g><path style="opacity:1" fill="#FFFFFF" d="M 260.5,631.5 C 261.833,632.167 261.833,632.167 260.5,631.5 Z"/></g>
<g><path style="opacity:1" fill="#FFFFFF" d="M 332.5,631.5 C 333.833,632.167 333.833,632.167 332.5,631.5 Z"/></g>
<g><path style="opacity:1" fill="#FFFFFF" d="M 416.5,631.5 C 417.833,632.167 417.833,632.167 416.5,631.5 Z"/></g>
<g><path style="opacity:1" fill="#FFFFFF" d="M 399.5,642.5 C 398.475,642.103 398.308,641.437 399,640.5C 399.464,641.094 399.631,641.761 399.5,642.5 Z"/></g>
<g><path style="opacity:1" fill="#FFFFFF" d="M 399.5,642.5 C 400.167,642.5 400.5,642.833 400.5,643.5C 400.167,643.167 399.833,642.833 399.5,642.5 Z"/></g>
<g><path style="opacity:1" fill="#FFFFFF" d="M 283.5,644.5 C 284.833,645.167 284.833,645.167 283.5,644.5 Z"/></g>
<g><path style="opacity:1" fill="#FFFFFF" d="M 667.5,645.5 C 668.833,646.167 668.833,646.167 667.5,645.5 Z"/></g>
<g><path style="opacity:1" fill="#FFFFFF" d="M 384.5,647.5 C 385.833,648.167 385.833,648.167 384.5,647.5 Z"/></g>
<g><path style="opacity:1" fill="#FFFFFF" d="M 385.5,649.5 C 386.833,650.167 386.833,650.167 385.5,649.5 Z"/></g>
<g><path style="opacity:1" fill="#FFFFFF" d="M 658.5,652.5 C 659.833,653.167 659.833,653.167 658.5,652.5 Z"/></g>
<g><path style="opacity:1" fill="#FFFFFF" d="M 391.5,657.5 C 392.833,658.167 392.833,658.167 391.5,657.5 Z"/></g>
<g><path style="opacity:1" fill="#FFFFFF" d="M 347.5,658.5 C 348.833,659.167 348.833,659.167 347.5,658.5 Z"/></g>
<g><path style="opacity:1" fill="#FFFFFF" d="M 394.5,658.5 C 393.833,659.167 393.833,659.167 394.5,658.5 Z"/></g>
<g><path style="opacity:1" fill="#FFFFFF" d="M 649.5,658.5 C 650.833,659.167 650.833,659.167 649.5,658.5 Z"/></g>
<g><path style="opacity:1" fill="#FFFFFF" d="M 345.5,659.5 C 346.833,660.167 346.833,660.167 345.5,659.5 Z"/></g>
<g><path style="opacity:1" fill="#FFFFFF" d="M 644.5,661.5 C 645.833,662.167 645.833,662.167 644.5,661.5 Z"/></g>
<g><path style="opacity:1" fill="#FFFFFF" d="M 634.5,667.5 C 635.833,668.167 635.833,668.167 634.5,667.5 Z"/></g>
<g><path style="opacity:1" fill="#FFFFFF" d="M 207.5,668.5 C 208.833,669.167 208.833,669.167 207.5,668.5 Z"/></g>
<g><path style="opacity:1" fill="#FFFFFF" d="M 634.5,668.5 C 633.833,669.167 633.833,669.167 634.5,668.5 Z"/></g>
<g><path style="opacity:1" fill="#FFFFFF" d="M 631.5,669.5 C 632.833,670.167 632.833,670.167 631.5,669.5 Z"/></g>
<g><path style="opacity:1" fill="#FFFFFF" d="M 631.5,670.5 C 630.833,671.167 630.833,671.167 631.5,670.5 Z"/></g>
<g><path style="opacity:1" fill="#FFFFFF" d="M 207.5,672.5 C 208.833,673.167 208.833,673.167 207.5,672.5 Z"/></g>
<g><path style="opacity:1" fill="#FFFFFF" d="M 315.5,672.5 C 316.239,672.369 316.906,672.536 317.5,673C 316.563,673.692 315.897,673.525 315.5,672.5 Z"/></g>
<g><path style="opacity:1" fill="#FFFFFF" d="M 318.5,672.5 C 319.833,673.167 319.833,673.167 318.5,672.5 Z"/></g>
<g><path style="opacity:1" fill="#FFFFFF" d="M 207.5,674.5 C 208.833,675.167 208.833,675.167 207.5,674.5 Z"/></g>
<g><path style="opacity:1" fill="#FFFFFF" d="M 415.5,674.5 C 416.833,675.167 416.833,675.167 415.5,674.5 Z"/></g>
<g><path style="opacity:1" fill="#FFFFFF" d="M 417.5,674.5 C 418.833,675.167 418.833,675.167 417.5,674.5 Z"/></g>
<g><path style="opacity:1" fill="#FFFFFF" d="M 207.5,676.5 C 208.833,677.167 208.833,677.167 207.5,676.5 Z"/></g>
<g><path style="opacity:1" fill="#FFFFFF" d="M 303.5,677.5 C 304.833,678.167 304.833,678.167 303.5,677.5 Z"/></g>
<g><path style="opacity:1" fill="#FFFFFF" d="M 615.5,677.5 C 616.833,678.167 616.833,678.167 615.5,677.5 Z"/></g>
<g><path style="opacity:1" fill="#FFFFFF" d="M 300.5,678.5 C 301.833,679.167 301.833,679.167 300.5,678.5 Z"/></g>
<g><path style="opacity:1" fill="#FFFFFF" d="M 207.5,680.5 C 208.833,681.167 208.833,681.167 207.5,680.5 Z"/></g>
<g><path style="opacity:1" fill="#FFFFFF" d="M 435.5,681.5 C 436.833,682.167 436.833,682.167 435.5,681.5 Z"/></g>
<g><path style="opacity:1" fill="#FFFFFF" d="M 441.5,683.5 C 442.833,684.167 442.833,684.167 441.5,683.5 Z"/></g>
<g><path style="opacity:1" fill="#FFFFFF" d="M 595.5,685.5 C 596.833,686.167 596.833,686.167 595.5,685.5 Z"/></g>
<g><path style="opacity:1" fill="#FFFFFF" d="M 604.5,685.5 C 605.833,686.167 605.833,686.167 604.5,685.5 Z"/></g>
<g><path style="opacity:1" fill="#FFFFFF" d="M 582.5,689.5 C 583.833,690.167 583.833,690.167 582.5,689.5 Z"/></g>
<g><path style="opacity:1" fill="#FFFFFF" d="M 214.5,689.5 C 216.027,689.427 217.027,690.094 217.5,691.5C 215.973,691.573 214.973,690.906 214.5,689.5 Z"/></g>
<g><path style="opacity:1" fill="#FFFFFF" d="M 463.5,690.5 C 464.833,691.167 464.833,691.167 463.5,690.5 Z"/></g>
<g><path style="opacity:1" fill="#FFFFFF" d="M 465.5,690.5 C 466.833,691.167 466.833,691.167 465.5,690.5 Z"/></g>
<g><path style="opacity:1" fill="#FFFFFF" d="M 215.5,692.5 C 216.833,693.167 216.833,693.167 215.5,692.5 Z"/></g>
<g><path style="opacity:1" fill="#FFFFFF" d="M 474.5,693.5 C 473.448,693.649 472.448,693.483 471.5,693C 472.749,692.26 473.749,692.427 474.5,693.5 Z"/></g>
<g><path style="opacity:1" fill="#FFFFFF" d="M 568.5,693.5 C 568.897,692.475 569.563,692.308 570.5,693C 569.906,693.464 569.239,693.631 568.5,693.5 Z"/></g>
<g><path style="opacity:1" fill="#FFFFFF" d="M 575.5,692.5 C 576.833,693.167 576.833,693.167 575.5,692.5 Z"/></g>
<g><path style="opacity:1" fill="#FFFFFF" d="M 474.5,693.5 C 475.239,693.369 475.906,693.536 476.5,694C 475.563,694.692 474.897,694.525 474.5,693.5 Z"/></g>
<g><path style="opacity:1" fill="#FFFFFF" d="M 480.5,693.5 C 480.103,694.525 479.437,694.692 478.5,694C 479.094,693.536 479.761,693.369 480.5,693.5 Z"/></g>
<g><path style="opacity:1" fill="#FFFFFF" d="M 563.5,694.5 C 563.897,693.475 564.563,693.308 565.5,694C 564.906,694.464 564.239,694.631 563.5,694.5 Z"/></g>
<g><path style="opacity:1" fill="#FFFFFF" d="M 219.5,694.5 C 220.833,695.167 220.833,695.167 219.5,694.5 Z"/></g>
<g><path style="opacity:1" fill="#FFFFFF" d="M 251.5,695.5 C 251.897,694.475 252.563,694.308 253.5,695C 252.906,695.464 252.239,695.631 251.5,695.5 Z"/></g>
<g><path style="opacity:1" fill="#FFFFFF" d="M 482.5,694.5 C 483.833,695.167 483.833,695.167 482.5,694.5 Z"/></g>
<g><path style="opacity:1" fill="#FFFFFF" d="M 555.5,694.5 C 556.552,694.351 557.552,694.517 558.5,695C 557.251,695.74 556.251,695.573 555.5,694.5 Z"/></g>
</svg>